<?xml version="1.0" encoding="UTF-8"?>
<svg xmlns="http://www.w3.org/2000/svg" width="800" height="480" viewBox="0 0 800 480">
  <rect x="0" y="0" width="800" height="480" fill="#ffffff"/>

  <!-- Plot area -->
  <line x1="80" y1="50" x2="80" y2="330" stroke="#000000" stroke-width="1"/>
  <line x1="80" y1="330" x2="760" y2="330" stroke="#000000" stroke-width="1"/>

  <!-- Gridlines -->
  <line x1="80" y1="330" x2="760" y2="330" stroke="#dddddd" stroke-width="1"/>
  <line x1="80" y1="237" x2="760" y2="237" stroke="#dddddd" stroke-width="1"/>
  <line x1="80" y1="143" x2="760" y2="143" stroke="#dddddd" stroke-width="1"/>
  <line x1="80" y1="50" x2="760" y2="50" stroke="#dddddd" stroke-width="1"/>

  <!-- Bars (total time in ms) -->
  <rect x="120" y="86" width="80" height="244" fill="#4C72B0"/>
  <rect x="240" y="146" width="80" height="184" fill="#4C72B0"/>
  <rect x="360" y="176" width="80" height="154" fill="#4C72B0"/>
  <rect x="480" y="162" width="80" height="168" fill="#4C72B0"/>
  <rect x="600" y="150" width="80" height="180" fill="#4C72B0"/>

  <!-- Y-axis labels -->
  <text x="60" y="334" font-size="12" text-anchor="end">0</text>
  <text x="60" y="241" font-size="12" text-anchor="end">1</text>
  <text x="60" y="147" font-size="12" text-anchor="end">2</text>
  <text x="60" y="54" font-size="12" text-anchor="end">3</text>

  <!-- X-axis labels -->
  <text x="160" y="365" font-size="12" text-anchor="end" transform="rotate(-20 160 365)">AMG-1</text>
  <text x="280" y="365" font-size="12" text-anchor="end" transform="rotate(-20 280 365)">AMG-2</text>
  <text x="400" y="365" font-size="12" text-anchor="end" transform="rotate(-20 400 365)">AMG-3</text>
  <text x="520" y="365" font-size="12" text-anchor="end" transform="rotate(-20 520 365)">AMG-4</text>
  <text x="640" y="365" font-size="12" text-anchor="end" transform="rotate(-20 640 365)">AMG-5</text>

  <!-- Axis titles -->
  <text x="420" y="460" font-size="14" text-anchor="middle">Preconditioner variant</text>
  <text x="20" y="190" font-size="14" text-anchor="middle" transform="rotate(-90 20 190)">Total time [ms]</text>

  <!-- Title -->
  <text x="420" y="28" font-size="16" text-anchor="middle" font-weight="bold">Example 8 total time</text>
</svg>
